# xmcd
#
# Track frame offsets:
#	150
#	40408
#	74083
#	86873
#	102686
#	114506
#	126511
#	137027
#	155656
#	180521
#	195566
#	215247
#	234769
#	259442
#	281950
#	305020
#	319313
#
# Disc length: 4730 seconds
#
# Revision: 0
# Processed by: cddbd v1.5.1PL2 Copyright (c) Steve Scherf et al.
# Submitted via: dBpowerAMP V4.0
#
DISCID=1a127811
DTITLE=Cutris Mayfield - Greatest Hits
DYEAR=1900
DGENRE=Blues
TTITLE0=Move on up
TTITLE1=Beatiful brother of mine
TTITLE2=It's all right
TTITLE3=Do do wap is strong in here
TTITLE4=You've benn cheatin
TTITLE5=Can't satisfy
TTITLE6=Were rolling on
TTITLE7=Check out your mind
TTITLE8=Freddie's Dead
TTITLE9=Ghetto child
TTITLE10=Gime your love
TTITLE11=Junkie chase
TTITLE12=Little child runnin wild
TTITLE13=No nothing on me
TTITLE14=Pusherman
TTITLE15=Superfly
TTITLE16=We're all going to go
EXTD=
EXTT0=
EXTT1=
EXTT2=
EXTT3=
EXTT4=
EXTT5=
EXTT6=
EXTT7=
EXTT8=
EXTT9=
EXTT10=
EXTT11=
EXTT12=
EXTT13=
EXTT14=
EXTT15=
EXTT16=
PLAYORDER=
